<svg
          class="mt-2"
          width="20"
          height="18"
          viewBox="0 0 20 18"
          fill="none"
          xmlns="http://www.w3.org/2000/svg"
        >
          <path
            d="M16.3704 9.55315V3.80151H17.3333V0.925697H1.92593V3.80151H2.88889V9.55315H0C0 10.4447 0.481481 11.1924 1.44444 11.4033V16.2634C1.44444 16.5176 1.5459 16.7615 1.72649 16.9412C1.90708 17.121 2.15201 17.222 2.40741 17.222H3.37037C3.62576 17.222 3.8707 17.121 4.05129 16.9412C4.23188 16.7615 4.33333 16.5176 4.33333 16.2634V15.3048H14.9259V16.2634C14.9259 16.5176 15.0274 16.7615 15.208 16.9412C15.3886 17.121 15.6335 17.222 15.8889 17.222H16.8519C17.1072 17.222 17.3522 17.121 17.5328 16.9412C17.7134 16.7615 17.8148 16.5176 17.8148 16.2634V11.4033C18.7778 11.1828 19.2593 10.4447 19.2593 9.55315H16.3704ZM5.77778 11.4704C5.39469 11.4704 5.02729 11.3189 4.7564 11.0492C4.48552 10.7795 4.33333 10.4138 4.33333 10.0325C4.33333 9.65109 4.48552 9.28536 4.7564 9.0157C5.02729 8.74604 5.39469 8.59454 5.77778 8.59454C6.16087 8.59454 6.52827 8.74604 6.79915 9.0157C7.07004 9.28536 7.22222 9.65109 7.22222 10.0325C7.22222 10.4138 7.07004 10.7795 6.79915 11.0492C6.52827 11.3189 6.16087 11.4704 5.77778 11.4704ZM13.4815 11.4704C13.0984 11.4704 12.731 11.3189 12.4601 11.0492C12.1892 10.7795 12.037 10.4138 12.037 10.0325C12.037 9.65109 12.1892 9.28536 12.4601 9.0157C12.731 8.74604 13.0984 8.59454 13.4815 8.59454C13.8646 8.59454 14.232 8.74604 14.5029 9.0157C14.7737 9.28536 14.9259 9.65109 14.9259 10.0325C14.9259 10.4138 14.7737 10.7795 14.5029 11.0492C14.232 11.3189 13.8646 11.4704 13.4815 11.4704ZM14.9259 7.15663C13.4044 6.84988 11.5844 6.67733 9.62963 6.67733C7.67481 6.67733 5.77778 6.84988 4.33333 7.15663V3.80151H14.9259V7.15663Z"
            fill="white"
          />
        </svg>