 <svg
              width="16"
              height="17"
              viewBox="0 0 16 17"
              fill="none"
              xmlns="http://www.w3.org/2000/svg"
            >
              <path
                d="M8 0.533203C3.58187 0.533203 0 4.11507 0 8.5332C0 12.9513 3.58187 16.5332 8 16.5332C12.4181 16.5332 16 12.9513 16 8.5332C16 4.11507 12.4181 0.533203 8 0.533203ZM9.33333 13.7999H6.66667V7.39987H9.33333V13.7999ZM8 5.9332C7.64638 5.9332 7.30724 5.79273 7.05719 5.54268C6.80714 5.29263 6.66667 4.95349 6.66667 4.59987C6.66667 4.24625 6.80714 3.90711 7.05719 3.65706C7.30724 3.40701 7.64638 3.26654 8 3.26654C8.35362 3.26654 8.69276 3.40701 8.94281 3.65706C9.19286 3.90711 9.33333 4.24625 9.33333 4.59987C9.33333 4.95349 9.19286 5.29263 8.94281 5.54268C8.69276 5.79273 8.35362 5.9332 8 5.9332Z"
                fill="white"
              />
            </svg>