 <svg
          width="21"
          height="17"
          class="mt-2"
          viewBox="0 0 21 17"
          fill="none"
          xmlns="http://www.w3.org/2000/svg"
        >
          <path
            d="M20.2994 16.6736C19.616 16.6115 18.9948 16.363 18.4356 15.9281C18.125 15.6174 17.6901 15.4311 17.1931 15.4311C16.7582 15.4311 16.2612 15.6174 15.9506 15.9281C15.3914 16.4251 14.708 16.6115 14.0246 16.6115C13.2791 16.6115 12.5336 16.363 11.9745 15.9281C11.2289 15.2447 10.1107 15.2447 9.42727 15.9281C8.86813 16.4251 8.12261 16.6736 7.31497 16.6736C6.56945 16.6736 5.88605 16.4251 5.32692 15.9281C4.95415 15.6174 4.51927 15.4311 4.08438 15.4311C3.58737 15.4311 3.02823 15.6174 2.65547 15.9281C2.0342 16.4251 1.22656 16.6736 0.481037 16.6115V15.4311C0.97805 15.4311 1.53719 15.2447 1.90995 14.8719C2.53122 14.3749 3.27674 14.1264 4.02226 14.1885C4.76778 14.1885 5.5133 14.437 6.07243 14.9341C6.81795 15.6174 7.93623 15.6174 8.68175 14.9341C9.86216 13.94 11.6017 13.94 12.72 14.9341C13.4655 15.6174 14.5838 15.6174 15.2672 14.9341C15.8263 14.437 16.5718 14.1885 17.3174 14.1885C18.0008 14.1885 18.6841 14.437 19.1812 14.9341C19.5539 15.2447 19.6782 15.4311 20.2994 15.4311V16.6736Z"
            fill="white"
          />
          <path
            d="M1.72415 13.6915C2.09691 13.3809 2.46967 13.1945 2.90456 13.0702V11.7034C2.90456 11.3307 3.15307 11.02 3.52583 11.02H19.0575L16.8209 12.946H16.9452C17.4422 12.946 17.9392 13.0702 18.312 13.2566L19.8651 11.8898L19.9894 11.7656C20.4243 11.2064 20.3 10.4609 19.7409 10.026C19.6166 9.90176 19.306 9.83964 19.0575 9.83964H3.52583C2.46967 9.83964 1.66203 10.6473 1.66203 11.7034L1.72415 13.6915Z"
            fill="white"
          />
          <path
            d="M8.43327 9.15624H4.70567C4.02227 9.15624 3.46313 8.5971 3.46313 7.91371C3.46313 7.6652 3.52526 7.4167 3.71164 7.16819L6.25883 3.56485C6.63159 3.00571 7.43924 2.88145 7.99838 3.25421C8.30901 3.50272 8.49539 3.87548 8.49539 4.24824V9.15624H8.43327Z"
            fill="white"
          />
          <path
            d="M14.273 9.15627H9.11646V1.39044C9.11646 0.707043 9.67559 0.147903 10.359 0.147903C10.7939 0.147903 11.1666 0.39641 11.4151 0.76917L15.3291 7.23034C15.7019 7.85161 15.4534 8.59713 14.8942 8.90776C14.7079 9.03201 14.4593 9.09414 14.273 9.15627Z"
            fill="white"
          />
        </svg>