<svg
          class="mt-2"
          width="19"
          height="18"
          viewBox="0 0 19 18"
          fill="none"
          xmlns="http://www.w3.org/2000/svg"
        >
          <path
            d="M14.7438 10.8643C14.5216 10.829 13.6682 10.5821 13.446 10.4851L11.606 16.1995L8.85936 15.203L10.8149 10.1147L8.1038 7.05463L10.3705 5.76712C10.7705 6.76362 11.4105 7.60139 12.2549 8.28924C13.0994 8.97709 14.0682 9.4092 15.1527 9.57675L16.1482 6.55197L14.8682 6.1375L14.406 7.54848C13.8194 7.30156 13.3038 6.93117 12.8594 6.45497C12.4149 5.96995 12.0949 5.40556 11.8994 4.77062L11.606 3.81821C11.4994 3.46547 11.2949 3.18327 11.0016 2.97162C10.7082 2.7688 10.3705 2.64534 10.0416 2.61888C9.69491 2.59242 9.35713 2.64534 9.03713 2.83053L5.92602 4.61188C5.59713 4.79707 5.35713 5.06163 5.20602 5.39674C5.03713 5.73184 5.00158 6.06695 5.03713 6.42851C5.07269 6.79008 5.26824 7.10755 5.51713 7.38092L8.69047 10.6526L7.18824 14.5857L1.01047 12.3899L0.59269 13.6333L13.0727 18.1484C14.3086 18.576 15.6437 18.6342 16.9127 18.316C17.4371 18.1749 17.926 17.9809 18.3705 17.734L17.366 16.7551C16.6994 17.0461 16.006 17.196 15.286 17.196C14.6994 17.196 14.1127 17.099 13.526 16.905L12.8594 16.6581L14.7438 10.8643ZM15.7038 1.76348C15.7038 2.74234 14.9127 3.5272 13.926 3.5272C12.9394 3.5272 12.1482 2.74234 12.1482 1.76348C12.1482 0.784611 12.9482 -0.000244141 13.926 -0.000244141C14.9038 -0.000244141 15.7038 0.79343 15.7038 1.76348Z"
            fill="white"
          />
        </svg>