<svg
              class="mt-3"
              width="47"
              height="47"
              viewBox="0 0 54 56"
              fill="none"
              xmlns="http://www.w3.org/2000/svg"
            >
              <path
                d="M52 28.2508C52 42.7119 40.6217 54.3684 26.6667 54.3684C12.7116 54.3684 1.33333 42.7119 1.33333 28.2508C1.33333 13.7897 12.7116 2.13314 26.6667 2.13314C40.6217 2.13314 52 13.7897 52 28.2508Z"
                stroke="white"
                stroke-width="2.66667"
              />
              <path
                d="M37.4187 18.9611C37.1111 17.9472 36.4725 17.058 35.5993 16.4276C34.7261 15.7973 33.6657 15.46 32.578 15.4666C31.3174 15.4677 30.1028 15.927 29.173 16.7543C28.2432 17.5816 27.6654 18.7169 27.5533 19.9372H24.4483C24.3346 18.7156 23.7549 17.5796 22.8231 16.7523C21.8913 15.9251 20.6748 15.4665 19.4128 15.4666C18.3266 15.4614 17.268 15.7994 16.3966 16.4297C15.5251 17.06 14.8881 17.9484 14.5813 18.9611L10.7311 31.431C10.6889 31.5699 10.6672 31.7139 10.6667 31.8587V33.3489C10.6691 35.3245 11.4778 37.2186 12.9154 38.6154C14.353 40.0123 16.302 40.7979 18.3349 40.7998C19.8248 40.7974 21.2817 40.3733 22.5277 39.5794C23.7737 38.7855 24.7549 37.6562 25.3514 36.3293H26.6486C27.2451 37.6562 28.2263 38.7855 29.4723 39.5794C30.7183 40.3733 32.1752 40.7974 33.6651 40.7998C35.6982 40.7979 37.6475 40.0121 39.0851 38.6149C40.5228 37.2177 41.3313 35.3233 41.3333 33.3474V31.8587C41.3333 31.7127 41.3103 31.5696 41.2689 31.431L37.4187 18.9611ZM18.3349 37.8195C17.1152 37.8179 15.946 37.3464 15.0834 36.5084C14.2209 35.6704 13.7354 34.5342 13.7333 33.3489C13.7333 33.2356 13.7594 33.1298 13.7671 33.0181C13.851 31.8957 14.368 30.8455 15.2148 30.0778C16.0615 29.3102 17.1754 28.8818 18.3333 28.8783C19.5533 28.8783 20.7234 29.3493 21.586 30.1877C22.4487 31.0261 22.9333 32.1632 22.9333 33.3489V33.3623C22.9281 34.5449 22.4415 35.6774 21.5799 36.5126C20.7183 37.3477 19.5517 37.8175 18.3349 37.8195ZM33.6651 37.8195C32.4483 37.8175 31.2817 37.3477 30.4201 36.5126C29.5585 35.6774 29.0719 34.5449 29.0667 33.3623V33.3489C29.0666 32.7618 29.1854 32.1805 29.4165 31.638C29.6476 31.0956 29.9864 30.6027 30.4134 30.1875C31.276 29.349 32.4459 28.8778 33.6659 28.8776C34.8859 28.8774 36.056 29.3482 36.9188 30.1865C37.7816 31.0247 38.2665 32.1617 38.2667 33.3474C38.265 34.533 37.7797 35.6696 36.9171 36.5079C36.0545 37.3462 34.885 37.8179 33.6651 37.8195Z"
                fill="white"
              />
            </svg>