<svg
          class="mt-2"
          width="15"
          height="19"
          viewBox="0 0 15 19"
          fill="none"
          xmlns="http://www.w3.org/2000/svg"
        >
          <path
            d="M8.38898 0.331474C8.33613 0.252214 8.26453 0.187226 8.18053 0.142279C8.09654 0.0973316 8.00275 0.0738144 7.90748 0.0738144C7.81222 0.0738144 7.71843 0.0973316 7.63443 0.142279C7.55044 0.187226 7.47884 0.252214 7.42599 0.331474L3.95368 5.53993C3.89569 5.62708 3.86242 5.72833 3.85742 5.83289C3.85242 5.93745 3.87587 6.04141 3.92528 6.1337C3.97469 6.22599 4.04821 6.30314 4.138 6.35695C4.22779 6.41076 4.3305 6.43921 4.43518 6.43926H4.54861L2.20827 10.1836C2.15352 10.2712 2.12322 10.3718 2.1205 10.4751C2.11779 10.5784 2.14277 10.6805 2.19285 10.7708C2.24293 10.8612 2.31628 10.9365 2.40529 10.9889C2.4943 11.0414 2.59572 11.069 2.69902 11.069H2.92009L1.02422 14.8608C0.980003 14.949 0.959088 15.0471 0.963458 15.1457C0.967828 15.2442 0.997338 15.3401 1.04918 15.4241C1.10103 15.508 1.17349 15.5773 1.25967 15.6254C1.34585 15.6735 1.4429 15.6987 1.54159 15.6987H6.75005V18.5923H9.06492V15.6987H14.2734C14.3721 15.6987 14.4691 15.6735 14.5553 15.6254C14.6415 15.5773 14.7139 15.508 14.7658 15.4241C14.8176 15.3401 14.8471 15.2442 14.8515 15.1457C14.8559 15.0471 14.835 14.949 14.7908 14.8608L12.896 11.069H13.1171C13.2204 11.069 13.3218 11.0414 13.4108 10.9889C13.4998 10.9365 13.5732 10.8612 13.6233 10.7708C13.6734 10.6805 13.6983 10.5784 13.6956 10.4751C13.6929 10.3718 13.6626 10.2712 13.6079 10.1836L11.2664 6.43926H11.3798C11.4845 6.43921 11.5872 6.41076 11.677 6.35695C11.7668 6.30314 11.8403 6.22599 11.8897 6.1337C11.9391 6.04141 11.9626 5.93745 11.9575 5.83289C11.9525 5.72833 11.9193 5.62708 11.8613 5.53993L8.38898 0.331474ZM6.09841 5.58044C6.04842 5.49006 5.97515 5.41471 5.88621 5.3622C5.79727 5.30969 5.6959 5.28194 5.59261 5.28183H5.51622L7.90748 1.69493L10.2987 5.28183H10.2224C10.1191 5.28183 10.0176 5.30948 9.92862 5.36191C9.83961 5.41434 9.76626 5.48965 9.71618 5.58C9.6661 5.67035 9.64112 5.77247 9.64383 5.87573C9.64655 5.979 9.67685 6.07966 9.7316 6.16726L12.0719 9.91157H11.9585C11.8598 9.91157 11.7628 9.93681 11.6766 9.98489C11.5904 10.033 11.5179 10.1023 11.4661 10.1863C11.4143 10.2702 11.3847 10.3661 11.3804 10.4647C11.376 10.5632 11.3969 10.6613 11.4411 10.7496L13.3359 14.5413H2.47795L4.37383 10.7496C4.41805 10.6613 4.43896 10.5632 4.43459 10.4647C4.43022 10.3661 4.40071 10.2702 4.34887 10.1863C4.29702 10.1023 4.22456 10.033 4.13838 9.98489C4.0522 9.93681 3.95515 9.91157 3.85646 9.91157H3.74303L6.08337 6.16726C6.13798 6.07968 6.16817 5.97908 6.17081 5.8759C6.17346 5.77272 6.14846 5.67071 6.09841 5.58044Z"
            fill="white"
          />
        </svg>